<?xml version="1.0" encoding="utf-8"?>
<!-- Generator: Adobe Illustrator 15.0.0, SVG Export Plug-In . SVG Version: 6.00 Build 0)  -->
<!DOCTYPE svg PUBLIC "-//W3C//DTD SVG 1.1//EN" "http://www.w3.org/Graphics/SVG/1.1/DTD/svg11.dtd">
<svg version="1.1" id="Capa_1" xmlns="http://www.w3.org/2000/svg" xmlns:xlink="http://www.w3.org/1999/xlink" x="0px" y="0px"
	 width="612px" height="792px" viewBox="0 0 612 792" enable-background="new 0 0 612 792" xml:space="preserve">
<title>quotes</title>
<path fill="#C13235" d="M290.083,216.394c-92.911,45.318-139.367,98.572-139.367,159.763c40.026,4.523,72.884,20.582,98.572,48.177
	c51.163,54.161,51.406,138.765,0.555,193.219c-24.455,26.077-58.864,40.495-94.604,39.642c-42.302,0-78.758-17.183-109.368-51.548
	C15.262,571.282-0.028,529.549,0,480.447C0,333.145,81.958,217.93,245.875,134.806L290.083,216.394z M612,216.394
	c-92.171,45.318-138.257,98.572-138.257,159.763c37.3,3.553,71.989,20.7,97.463,48.177c24.858,25.65,38.649,60.037,38.404,95.756
	c0,38.519-12.46,71.006-37.381,97.463c-24.147,26.083-58.344,40.523-93.878,39.642c-42.302,0-78.943-17.183-109.923-51.548
	c-30.979-34.364-46.483-76.098-46.512-125.199c0-147.303,82.342-262.517,247.027-345.642L612,216.394z"/>
</svg>
